<svg width="24" height="24" viewBox="0 0 24 24" fill="none" xmlns="http://www.w3.org/2000/svg">
<path fill-rule="evenodd" clip-rule="evenodd" d="M12 21C7.029 21 3 16.971 3 12C3 7.029 7.029 3 12 3C16.971 3 21 7.029 21 12C21 16.971 16.971 21 12 21Z" stroke="#262628" stroke-width="1.5" stroke-linecap="round" stroke-linejoin="round"/>
<path d="M11.999 11.625C11.792 11.625 11.624 11.793 11.626 12C11.626 12.207 11.794 12.375 12.001 12.375C12.208 12.375 12.376 12.207 12.376 12C12.375 11.793 12.207 11.625 11.999 11.625Z" fill="#262628" stroke="#262628" stroke-linecap="round" stroke-linejoin="round"/>
<path d="M15.999 11.625C15.792 11.625 15.624 11.793 15.626 12C15.626 12.207 15.794 12.375 16.001 12.375C16.208 12.375 16.376 12.207 16.376 12C16.375 11.793 16.207 11.625 15.999 11.625Z" fill="#262628" stroke="#262628" stroke-linecap="round" stroke-linejoin="round"/>
<path d="M7.99899 11.625C7.79199 11.625 7.62399 11.793 7.62599 12C7.62599 12.207 7.79399 12.375 8.00099 12.375C8.20799 12.375 8.37599 12.207 8.37599 12C8.37499 11.793 8.20699 11.625 7.99899 11.625Z" fill="#262628" stroke="#262628" stroke-linecap="round" stroke-linejoin="round"/>
</svg>
